<svg xmlns="http://www.w3.org/2000/svg" viewBox="0 0 900 520" role="img" aria-labelledby="title desc">
  <title id="title">Mapa de ubicación Dental Expertos</title>
  <desc id="desc">Preview visual de la ubicación de Dental Expertos en Guayabal, Medellín.</desc>
  <defs>
    <linearGradient id="bg" x1="0" x2="1" y1="0" y2="1">
      <stop offset="0" stop-color="#FFFDF5"/>
      <stop offset="0.55" stop-color="#F5F5DC"/>
      <stop offset="1" stop-color="#E8DFC8"/>
    </linearGradient>
    <filter id="shadow" x="-20%" y="-20%" width="140%" height="140%">
      <feDropShadow dx="0" dy="14" stdDeviation="14" flood-color="#1A0F0A" flood-opacity="0.22"/>
    </filter>
  </defs>
  <rect width="900" height="520" fill="url(#bg)"/>
  <path d="M-40 118C120 54 248 65 371 151s245 104 377 47 189-92 252-54" fill="none" stroke="#FFFFFF" stroke-width="86" opacity="0.72"/>
  <path d="M-40 118C120 54 248 65 371 151s245 104 377 47 189-92 252-54" fill="none" stroke="#C8B88A" stroke-width="18" opacity="0.36"/>
  <path d="M-55 386c163-86 309-95 438-29s251 83 389 8 207-83 270-32" fill="none" stroke="#FFFFFF" stroke-width="74" opacity="0.66"/>
  <path d="M-55 386c163-86 309-95 438-29s251 83 389 8 207-83 270-32" fill="none" stroke="#5D4037" stroke-width="12" opacity="0.22"/>
  <g stroke="#5D4037" stroke-width="4" opacity="0.13">
    <path d="M110 0v520"/>
    <path d="M310 0v520"/>
    <path d="M520 0v520"/>
    <path d="M735 0v520"/>
    <path d="M0 88h900"/>
    <path d="M0 236h900"/>
    <path d="M0 430h900"/>
  </g>
  <g filter="url(#shadow)">
    <path d="M462 102c66 93 126 152 126 228 0 70-56 126-126 126S336 400 336 330c0-76 60-135 126-228Z" fill="#1A0F0A"/>
    <circle cx="462" cy="302" r="63" fill="#F5F5DC"/>
    <path d="M462 232c29 43 57 68 57 103 0 31-26 57-57 57s-57-26-57-57c0-35 28-60 57-103Z" fill="#5D4037"/>
    <circle cx="462" cy="326" r="20" fill="#FFFDF5"/>
  </g>
  <g transform="translate(44 38)">
    <rect width="276" height="102" rx="26" fill="#FFFFFF" opacity="0.94"/>
    <text x="28" y="42" fill="#1A0F0A" font-family="Georgia, serif" font-size="26" font-weight="700">Dental Expertos</text>
    <text x="28" y="76" fill="#5D4037" font-family="Arial, sans-serif" font-size="17">Cra. 52 # 07-115</text>
  </g>
  <g transform="translate(646 392)">
    <rect width="210" height="78" rx="22" fill="#1A0F0A" opacity="0.94"/>
    <text x="24" y="34" fill="#FFFDF5" font-family="Arial, sans-serif" font-size="16" font-weight="700">Guayabal, Medellín</text>
    <text x="24" y="58" fill="#F5F5DC" font-family="Arial, sans-serif" font-size="13">6.2137364, -75.5827135</text>
  </g>
</svg>
